# xmcd CD database file
#
# Track frame offsets:
#	150
#	21690
#	39309
#	56862
#	75315
#	88304
#	103935
#	120333
#	144336
#	163856
#	179272
#	200104
#	215676
#	231574
#	254232
#	271350
#	293016
#	309428
#	322092
#
# Disc length: 4485 seconds
#
# Revision: 2
# Processed by: cddbd v1.5.2PL0 Copyright (c) Steve Scherf et al.
# Submitted via: CDex 1.51
#
DISCID=2b118313
DTITLE=Andy Griffith - Bound For The Promised Land
DYEAR=2005
DGENRE=Gospel
TTITLE0=Shall We Gather At The River
TTITLE1=Precious Memories
TTITLE2=Sweet Prospect
TTITLE3=Amazing Grace
TTITLE4=I Love To Tell The Story
TTITLE5=When We All Get Heaven
TTITLE6=There's Power In The Blood
TTITLE7=We're Marching To Zion
TTITLE8=There Is A Fountain
TTITLE9=The Church In The Wildwood
TTITLE10=Just As I Am
TTITLE11=When I Can Read My Title Clear
TTITLE12=I'll Fly Away
TTITLE13=Does Jesus Care
TTITLE14=God Will Take Care Of You
TTITLE15=What Wondrous Love Is This
TTITLE16=It Is No Secret
TTITLE17=Beautiful Savior
TTITLE18=Jesus Walked That Lonesome Valley
EXTD=YEAR: 2005
EXTT0=
EXTT1=
EXTT2=
EXTT3=
EXTT4=
EXTT5=
EXTT6=
EXTT7=
EXTT8=
EXTT9=
EXTT10=
EXTT11=
EXTT12=
EXTT13=
EXTT14=
EXTT15=
EXTT16=
EXTT17=
EXTT18=
PLAYORDER=
